<svg xmlns="http://www.w3.org/2000/svg" viewBox="0 0 32 32"><path d="M30.56 8.47a8 8 0 0 0-7-7 64.29 64.29 0 0 0-15.06 0 8 8 0 0 0-7 7 64.29 64.29 0 0 0 0 15.06 8 8 0 0 0 7 7 64.29 64.29 0 0 0 15.06 0 8 8 0 0 0 7-7 64.29 64.29 0 0 0 0-15.06zM23 3.4h.3a6 6 0 0 1 5.28 5.3V9H23zM17 29a63.9 63.9 0 0 1-8.3-.39A6 6 0 0 1 7 28.1V24a5 5 0 0 1 10 0zM9 14a3 3 0 1 1 3 3 3 3 0 0 1-3-3zm12 14.78c-.67 0-1.33.1-2 .13V24a7 7 0 0 0-3.78-6.21 5 5 0 1 0-6.44 0A7 7 0 0 0 5 24v2.7a6 6 0 0 1-1.58-3.4 63.65 63.65 0 0 1 0-14.6A6 6 0 0 1 8.7 3.42a61.22 61.22 0 0 1 12.3-.2zm7.58-5.48a6 6 0 0 1-5.28 5.28H23V23h5.6c-.01.1-.01.2-.02.3zm.2-2.3H23v-4h6c0 1.34-.12 2.67-.22 4zM23 15v-4h5.78c.1 1.33.17 2.66.19 4z" data-name="people android app aplication phone"/></svg>